<?xml version="1.0" standalone="no"?>
<!DOCTYPE svg PUBLIC "-//W3C//DTD SVG 20010904//EN"
 "http://www.w3.org/TR/2001/REC-SVG-20010904/DTD/svg10.dtd">
<svg version="1.0" xmlns="http://www.w3.org/2000/svg"
 width="128.000000pt" height="128.000000pt" viewBox="0 0 128.000000 128.000000"
 preserveAspectRatio="xMidYMid meet">
<metadata>
Created by potrace 1.10, written by Peter Selinger 2001-2011
</metadata>
<g transform="translate(0.000000,128.000000) scale(0.100000,-0.100000)"
fill="#000000" stroke="none">
<path d="M501 1254 c-121 -32 -226 -116 -278 -221 -26 -54 -28 -67 -30 -188
-1 -71 -2 -135 -2 -141 -1 -6 -26 -48 -56 -92 -30 -45 -55 -88 -55 -96 0 -18
34 -42 73 -51 15 -4 27 -8 27 -10 0 -1 -7 -19 -15 -40 -19 -43 -8 -65 33 -65
l25 0 -23 -24 c-28 -31 -21 -51 24 -72 29 -15 34 -22 39 -62 4 -34 12 -53 33
-70 25 -22 34 -24 83 -18 30 4 69 13 85 21 16 8 30 15 32 15 1 0 5 -15 9 -33
16 -80 27 -107 40 -107 30 0 7 116 -29 149 -22 21 -24 21 -89 5 -86 -22 -111
-12 -127 47 -7 23 -24 55 -40 70 -20 20 -26 35 -23 53 3 16 -2 35 -16 52 -13
17 -19 34 -15 49 8 32 -9 60 -46 75 -16 7 -30 18 -30 25 0 7 21 44 47 81 l48
69 5 150 c6 136 8 155 32 200 28 55 96 123 148 150 30 16 124 50 143 53 22 4
117 34 117 38 0 10 -119 2 -169 -12z"/>
<path d="M704 1262 c4 -8 0 -12 -11 -12 -10 0 -31 -7 -47 -15 -15 -8 -34 -15
-42 -15 -7 0 -39 -11 -71 -26 -56 -24 -102 -65 -103 -91 0 -7 -9 -27 -20 -45
-40 -67 -13 -151 68 -214 28 -21 54 -48 58 -59 17 -52 84 -95 147 -95 29 0 41
-8 71 -44 49 -60 97 -89 127 -77 30 11 56 40 61 66 2 13 14 22 36 26 36 7 68
32 77 59 6 20 74 35 89 20 23 -23 -67 -216 -165 -351 -47 -65 -49 -69 -49
-136 0 -39 3 -111 6 -161 6 -81 9 -92 26 -92 17 0 18 7 13 113 -3 61 -8 130
-10 153 -4 36 1 47 56 120 107 141 178 316 179 437 0 57 -24 181 -46 233 -35
84 -109 146 -220 185 -68 23 -242 39 -230 21z m91 -64 c32 -14 32 -20 -5 -74
l-31 -44 46 -12 c42 -11 45 -15 45 -44 0 -18 -4 -44 -10 -58 -9 -24 -15 -26
-64 -26 -39 0 -55 4 -60 15 -9 25 -23 17 -30 -19 -5 -27 -13 -37 -37 -45 -27
-9 -36 -7 -69 17 -38 27 -38 27 -22 55 14 23 21 27 44 21 21 -4 28 -2 28 9 0
8 -7 18 -15 21 -12 4 -13 10 -6 25 11 19 11 19 62 0 70 -27 86 -10 25 26 l-46
27 0 59 0 59 60 0 c32 0 71 -5 85 -12z m135 -4 l35 -6 -6 -71 c-9 -121 -70
-188 -77 -85 -3 44 -5 46 -38 52 -18 4 -34 11 -34 16 0 20 56 99 70 100 8 0
31 -3 50 -6z m-310 -43 l0 -40 -47 -3 -48 -3 32 -18 33 -17 -27 -55 -27 -55
-59 0 c-50 0 -58 2 -53 16 3 9 6 29 6 44 0 28 2 29 58 32 l57 3 -42 14 c-24 8
-43 17 -43 21 0 25 68 68 158 99 1 1 2 -17 2 -38z m447 -60 l42 -47 -46 -37
c-55 -45 -103 -51 -103 -13 0 13 7 29 15 36 8 7 15 29 15 49 0 33 15 63 30 60
3 -1 24 -22 47 -48z m75 -136 l28 -45 -33 0 c-70 0 -104 -12 -116 -37 -14 -30
-15 -28 24 -37 l30 -7 -24 20 -24 19 21 11 c11 6 42 11 68 11 l47 0 -7 -37
c-3 -21 -6 -45 -6 -54 0 -26 -98 -20 -134 8 -26 21 -30 22 -63 8 -36 -15 -83
-20 -83 -9 0 3 10 14 22 24 22 18 22 18 -30 21 -29 2 -52 2 -52 0 0 -3 7 -12
16 -22 15 -17 15 -22 1 -56 l-15 -38 -87 -3 c-74 -2 -91 0 -121 18 -26 17 -34
28 -34 51 0 48 34 56 108 25 70 -30 92 -32 92 -11 0 8 -17 19 -40 26 -28 9
-39 17 -35 27 3 7 5 19 5 25 0 8 18 11 55 9 47 -3 62 1 104 26 l49 31 50 -16
50 -16 49 36 c26 20 50 37 53 37 3 0 17 -20 32 -45z m-583 -58 l45 -30 -31
-15 c-29 -14 -32 -13 -86 29 -30 24 -56 47 -56 52 -2 17 87 -8 128 -36z m461
-152 c0 -30 -4 -36 -27 -41 -16 -3 -44 -10 -63 -15 -31 -8 -38 -6 -63 20 -25
24 -27 32 -18 50 10 19 20 21 91 21 l80 0 0 -35z m-152 -76 c47 -53 47 -53 15
-65 -26 -10 -31 -7 -76 42 -48 53 -48 62 1 63 14 1 36 -14 60 -40z"/>
</g>
</svg>
